<svg width="117" height="50" viewBox="0 0 117 50" fill="none" xmlns="http://www.w3.org/2000/svg">
<g id="CD_Projekt_logo 1" clip-path="url(#clip0_21_33)">
<g id="g10">
<g id="g60">
<g id="g62">
<g id="g68">
<path id="path70" d="M8.46777 44.5511C9.19122 43.7729 10.0416 42.8942 10.5494 42.481C10.4066 42.4687 10.1813 42.441 9.93663 42.4041C9.40733 42.8863 8.7322 43.5907 8.12735 44.2367C7.36085 45.0636 6.72921 45.786 6.72921 45.7895C6.71954 45.7956 6.71603 45.8084 6.70593 45.8172C6.20518 45.955 5.35522 46.1887 4.78991 46.3428C3.95181 46.5751 3.19981 46.518 3.19981 47.0661C3.19981 47.0661 2.33229 47.5311 2.53522 48.2245C2.53522 48.2245 4.27554 46.8347 5.76461 46.5993C5.76461 46.5993 4.85492 47.1908 4.9375 47.9927C4.9375 47.9927 6.16345 46.1588 7.59498 47.2707C7.59498 47.2707 6.95718 46.4043 7.22293 45.9274C7.45178 45.6678 7.92573 45.1347 8.46777 44.5511ZM5.71102 22.8974C5.63591 22.9308 5.55772 22.9431 5.47734 22.9431C5.22345 22.9431 4.98537 22.7894 4.88215 22.5377C4.87292 22.5171 4.86107 22.4925 4.85667 22.4666L4.66779 22.5294C4.8268 22.9922 5.30471 23.2456 5.73606 23.0963C5.84455 23.0572 5.94163 22.9997 6.01674 22.9259C6.25394 22.7028 6.35013 22.3401 6.23197 21.9954L5.79887 22.1434C5.8261 22.207 5.84455 22.276 5.84455 22.3498C5.84455 22.4139 5.83357 22.4718 5.80809 22.5272L6.00576 22.6475C5.9715 22.6993 5.92933 22.7511 5.87881 22.7942C5.83357 22.8372 5.77559 22.8715 5.71102 22.8974ZM23.2491 21.493L14.6893 23.5802V23.571L14.692 23.5802L31.4113 16.3476L17.6323 18.0347L25.0078 12.6486L17.1044 15.7336L18.2978 13.339L12.6442 17.4103L12.5963 17.3242L20.6118 0L7.5774 15.4236L7.49614 7.01444L2.71356 18.2543L2.46494 14.941L0.108788 23.5631L0.113181 23.5605V23.5631C0.113181 23.5631 0.43076 23.3282 0.857714 23.1995C0.891976 23.1903 0.926677 23.1815 0.960939 23.1718C0.965331 23.1718 0.969724 23.1683 0.974556 23.1683C1.00926 23.1609 1.04352 23.1525 1.07778 23.1473C1.08217 23.1473 1.08744 23.1433 1.09403 23.1433C1.12917 23.1372 1.16299 23.1323 1.20253 23.1301V23.1262C1.23942 23.1231 1.27544 23.1213 1.31014 23.1183H1.33255C1.36725 23.1152 1.40458 23.1152 1.44368 23.1183C1.44587 23.1183 1.44807 23.1183 1.45642 23.1213C1.48892 23.1213 1.52099 23.1231 1.55569 23.1301C1.56228 23.1323 1.56667 23.1323 1.57414 23.1323C1.61147 23.1372 1.64529 23.1433 1.68 23.1525C1.68922 23.1525 1.69844 23.1556 1.70284 23.1578C1.73886 23.167 1.77575 23.1767 1.81529 23.1903C2.62131 23.4819 3.30699 23.1903 3.30699 23.1903C3.30699 23.1903 4.06602 23.6773 4.06602 24.0861H4.06426V24.0879C4.06426 24.0879 3.0654 24.1463 3.0654 23.7041C3.0654 23.7041 1.78805 23.2505 0.000732422 23.9127L3.76996 25.5331C3.76776 25.5156 3.56878 24.8142 3.78665 24.5701C3.85562 24.4858 3.97685 24.4563 4.16573 24.5205C4.23469 24.545 4.28477 24.5389 4.31595 24.5086C4.60893 24.2065 3.18751 21.5821 3.18751 21.5821C3.18751 21.5821 1.91104 21.4583 0.806761 22.6133C0.733406 22.6897 0.656975 22.7718 0.586256 22.8618V22.8579V22.8618C0.699144 22.6651 1.05714 22.0946 1.65452 21.6006C2.01251 21.3002 2.46055 21.031 2.99424 20.8791C3.14051 20.5282 2.95471 20.7566 3.25647 20.5721C3.25867 20.5721 3.25867 20.569 3.25867 20.569C3.40055 19.6438 3.92458 17.2605 5.7321 15.222C5.85334 15.0868 5.97809 14.9502 6.11074 14.8207C6.11074 14.8207 5.64777 15.6915 5.64777 16.2971C5.66094 16.2817 6.11821 15.5957 6.75029 14.9682V14.9656C6.75029 14.9656 6.74282 14.9757 6.7336 14.9928C6.61632 15.244 5.75451 17.0831 5.84455 17.6202C5.84719 17.625 5.84895 17.6281 5.84895 17.6334L7.59102 16.0375C7.59102 16.0375 7.58619 16.0406 7.58355 16.0424C7.53304 16.1113 5.94778 18.2543 5.7914 18.989V18.9938L8.42912 17.1103L8.42648 17.1134C8.4177 17.1288 8.09441 17.5798 7.95824 17.827C7.8616 18.004 7.84755 18.0637 7.84755 18.0822L7.85194 18.0962L9.27204 17.4876C9.27204 17.4876 9.21055 17.5613 9.11128 17.6689L8.58285 18.206L8.4524 18.3439L7.49175 19.3144L7.47374 19.3368L6.74282 20.0794L6.27414 20.5567C6.27414 20.5567 5.89067 20.9559 5.84455 21.1628C5.79887 21.3661 6.01498 21.4917 6.01498 21.4917H6.01235C6.20781 21.6006 6.36551 21.7692 6.45819 21.9708C6.50914 22.0929 6.53813 22.2255 6.53813 22.3682C6.53813 22.6475 6.42349 22.9009 6.23197 23.084C6.04441 23.2685 5.77998 23.3835 5.48876 23.3835C5.22345 23.3835 4.98801 23.2873 4.80396 23.1336C4.83603 23.1767 5.35522 23.8292 6.3084 23.322L7.48648 22.4635L7.53743 22.4235L8.75504 21.5334C9.04231 21.8724 9.31377 22.2808 9.55931 22.7441C8.83587 23.4314 7.602 24.6237 6.3699 25.9275C5.63591 26.7026 4.90323 27.522 4.27774 28.2958L4.71699 26.2322L4.75345 26.0618C4.75345 26.0618 4.75169 26.0618 4.75169 26.0649C4.74686 26.0671 4.74422 26.0671 4.74071 26.0702C4.74071 26.0719 4.735 26.075 4.735 26.075C4.73061 26.0772 4.72578 26.0772 4.72314 26.0842C4.72094 26.0842 4.71699 26.086 4.71699 26.0908C4.71216 26.0935 4.70469 26.0965 4.70074 26.0996C4.6981 26.1014 4.69635 26.108 4.68888 26.1093C4.68449 26.1119 4.6779 26.1185 4.67175 26.1203C4.66779 26.1264 4.66384 26.129 4.65681 26.1339C4.65198 26.1387 4.64847 26.144 4.63836 26.1462C4.63177 26.1532 4.62738 26.1598 4.61992 26.1633C4.61377 26.1686 4.6063 26.1769 4.59883 26.1782C4.59312 26.1874 4.58565 26.1953 4.5795 26.198C4.5694 26.2046 4.56281 26.2129 4.55359 26.2191C4.54656 26.2239 4.53997 26.2322 4.53382 26.2393C4.52416 26.2472 4.5123 26.2533 4.50571 26.2643C4.49385 26.2687 4.48946 26.2766 4.47804 26.2814C4.47101 26.2928 4.45959 26.3012 4.44773 26.3113C4.44158 26.3187 4.42928 26.3271 4.42269 26.3359C4.41083 26.3455 4.39721 26.3565 4.38799 26.3688C4.37877 26.3772 4.37262 26.3851 4.36032 26.3912C4.35153 26.4048 4.33835 26.418 4.32166 26.4303C4.31244 26.4378 4.30541 26.4439 4.29882 26.4527C4.29135 26.4601 4.28257 26.4681 4.27291 26.4755C4.27291 26.4786 4.27115 26.4786 4.27115 26.4786C4.25797 26.4909 4.24348 26.5067 4.22986 26.5216C4.218 26.5291 4.20877 26.5414 4.20043 26.5524C4.18374 26.5647 4.17188 26.5787 4.15826 26.5919C4.14684 26.6029 4.13498 26.6165 4.124 26.6261C4.11477 26.6402 4.10291 26.6507 4.09677 26.6595C4.09193 26.663 4.08578 26.6696 4.08051 26.6749C4.08051 26.6766 4.07612 26.6802 4.07085 26.685C4.0625 26.6938 4.05504 26.7012 4.04581 26.7109C4.03439 26.7245 4.02297 26.7355 4.01155 26.7491C4.00891 26.7539 4.00716 26.7579 4.00233 26.7588C3.99749 26.764 3.99354 26.7662 3.98871 26.7715C3.98256 26.7825 3.97465 26.7904 3.96543 26.7983C3.95181 26.8181 3.93819 26.833 3.91975 26.8488C3.90789 26.8659 3.89383 26.8782 3.88285 26.8958C3.86923 26.9129 3.85078 26.9314 3.83673 26.9472C3.82311 26.9643 3.81037 26.9779 3.79719 26.995C3.77962 27.0143 3.76601 27.0345 3.74756 27.0539C3.7357 27.0692 3.72164 27.0851 3.70671 27.1035C3.69221 27.1246 3.67596 27.143 3.65751 27.1676C3.6439 27.1799 3.63247 27.1988 3.61798 27.2142C3.60085 27.2401 3.58196 27.262 3.56351 27.2871C3.54946 27.3055 3.53804 27.3178 3.52881 27.334C3.50641 27.3639 3.48269 27.3933 3.45985 27.4228C3.45282 27.4346 3.44096 27.4482 3.43481 27.4592C3.40275 27.5036 3.36848 27.5483 3.33774 27.5949L3.33378 27.6002C3.30304 27.645 3.27097 27.6893 3.24154 27.7345C3.23407 27.7477 3.22441 27.7631 3.21475 27.7771C3.19366 27.8114 3.16906 27.8461 3.14578 27.8825C3.13348 27.8997 3.1247 27.9168 3.11108 27.9339C3.09044 27.9686 3.06935 27.9993 3.04651 28.0336C3.03465 28.0547 3.02367 28.0731 3.01269 28.092C2.99424 28.1267 2.97096 28.1618 2.94856 28.1961C2.93889 28.2172 2.92528 28.2374 2.9143 28.2593C2.89321 28.294 2.87476 28.33 2.85148 28.3647C2.83962 28.3832 2.82645 28.4078 2.81459 28.4288C2.7935 28.4692 2.77286 28.5039 2.75177 28.5408C2.74211 28.5615 2.72937 28.5847 2.71839 28.6084C2.62131 28.7867 2.52731 28.9712 2.43068 29.1705V29.1741L1.94574 29.2553C2.04282 29.0059 2.13901 28.7793 2.24268 28.5645L1.45202 29.6773L2.24268 29.6C1.56667 31.1533 1.07075 33.1861 1.07075 36.0809L1.71426 35.6738C2.28177 38.905 4.94628 40.3252 4.94628 40.3252L4.94189 40.305C6.40943 41.2654 8.19631 41.9373 10.1655 42.2034C10.4387 42.2381 10.6601 42.2583 10.7102 42.2632C10.7119 42.2632 10.7119 42.2632 10.7119 42.2619C10.7475 42.2662 10.7791 42.2724 10.8134 42.2724C11.8799 42.3655 12.9156 42.3273 13.9062 42.1824C13.9035 42.2201 13.9013 42.2583 13.9013 42.2965C13.9013 42.9364 14.2571 43.4629 14.7104 43.5064C13.7797 45.0895 13.0255 47.1921 13.0233 47.2018C12.9872 47.2984 12.913 47.4776 12.8379 47.5311C12.6086 47.583 12.5902 47.5944 12.3363 47.6734L12.3402 47.6703C12.2546 47.5869 11.5193 47.4495 10.7703 47.7305C10.7721 47.734 10.7721 47.734 10.7765 47.738C10.3526 47.9237 9.94015 48.2632 9.65419 48.8257C9.9586 48.5798 10.5265 48.1802 10.9891 48.2355C10.4413 48.5473 9.49518 49.1428 9.38713 50C9.38713 50 12.6719 47.6958 14.2914 48.1209C14.2914 48.1209 14.0555 48.3888 14.6134 49.3839L14.8681 48.4582C15.1598 47.5601 14.0349 47.4279 13.5618 47.4086C13.564 47.402 13.564 47.399 13.564 47.3976C13.564 47.3976 13.6163 47.2536 13.7081 47.0156C13.987 46.2963 14.6362 44.7061 15.3469 43.5709C15.3596 43.5472 15.3689 43.5218 15.3763 43.4985L15.2432 43.3154C15.2446 43.3154 15.3394 43.2117 15.3904 43.1353C15.4844 42.9864 15.6153 42.7339 15.6175 42.3997C15.6175 42.1376 15.5534 41.8069 15.3667 41.3959L15.7875 41.2009C15.8103 41.2545 15.8327 41.3041 15.8551 41.3519C15.8613 41.3704 15.8674 41.3866 15.8727 41.4007C15.8859 41.4349 15.8995 41.4696 15.9109 41.5039C15.9179 41.5193 15.9241 41.5386 15.9302 41.5557C15.9417 41.593 15.9522 41.6277 15.9645 41.662C15.9671 41.6725 15.9737 41.6866 15.9764 41.6989L18.3804 40.973L17.8476 40.5343H17.8441L17.8203 40.5105L17.808 40.5013L8.71551 32.2226C8.71814 32.2226 8.72078 32.227 8.72078 32.227L8.71814 32.2226C11.246 33.4518 14.1947 34.8807 19.1965 37.1976C24.1241 39.4685 27.2441 40.7912 28.8535 41.4503C28.8671 41.4591 28.882 41.4648 28.893 41.4696H28.8957C29.1293 41.5658 29.3301 41.6462 29.4992 41.7151C29.8436 41.8499 30.1664 41.9747 30.184 41.9826C30.2112 41.9672 30.2437 41.9588 30.2714 41.9444L11.8887 29.3396L23.2491 21.493ZM10.5265 25.3781L7.78605 27.4623L9.75303 23.1372V23.1336C10.0658 23.7967 10.3284 24.5547 10.5292 25.3781H10.5265ZM20.3122 40.2897L20.3807 40.6186H20.379L23.582 42.5073L24.3924 42.9781L23.9492 41.8381C26.5918 42.6171 28.7437 42.6606 30.1748 41.9865C30.1748 41.9865 30.173 41.9865 30.173 41.9874C27.682 42.7234 21.5052 40.6427 20.3122 40.2897Z" fill="#DC0D15"/>
</g>
<g id="g72">
<path id="path74" d="M3.06511 23.7041C3.06511 24.1463 4.06397 24.0879 4.06397 24.0879C4.06397 23.6812 3.30626 23.192 3.30626 23.192C3.30626 23.192 2.62102 23.4819 1.8106 23.192C1.48599 23.0748 1.14645 23.113 0.857422 23.2013C0.473515 23.4573 0 23.9157 0 23.9157C1.78776 23.2509 3.06511 23.7041 3.06511 23.7041ZM9.75273 23.1376L7.78576 27.4623L10.5263 25.3781C10.3282 24.5547 10.0615 23.8003 9.75273 23.1376ZM30.1881 41.983C30.1881 41.983 24.0315 39.6735 8.71522 32.2226L17.8433 40.5347H17.8473C18.6647 40.1952 19.2402 39.9541 20.3787 40.619L20.3115 40.2897C21.5023 40.6427 27.7024 42.7339 30.1881 41.983ZM15.3659 41.3959C15.5531 41.8069 15.6172 42.138 15.6172 42.3997C15.6146 42.7339 15.4841 42.9869 15.3901 43.1357C15.3391 43.2122 15.2443 43.3154 15.243 43.3154L15.5162 43.6899C15.5456 43.6711 16.0793 43.2679 16.0793 42.3997C16.0793 42.062 15.9985 41.6624 15.7854 41.2009L15.3659 41.3959ZM9.87089 42.3931C10.3053 42.4621 10.7011 42.4985 10.7011 42.4985L10.7213 42.2689C10.7213 42.2689 10.3339 42.2346 9.90867 42.1657L9.87089 42.3931ZM9.55902 22.7446C9.31348 22.2813 9.04202 21.8729 8.75475 21.5338L6.30811 23.3251C5.32023 23.8468 4.79928 23.1328 4.79928 23.1328C4.98025 23.2878 5.2214 23.3835 5.48846 23.3835C6.06916 23.3835 6.53564 22.9259 6.5374 22.3686C6.5374 22.2277 6.50885 22.0929 6.4557 21.9743C6.36521 21.7692 6.20489 21.6006 6.0103 21.493L6.01469 21.4917C6.01469 21.4917 5.79858 21.3665 5.84426 21.1628C5.89038 20.9559 6.27341 20.5567 6.27341 20.5567L6.27121 20.5585L7.47345 19.3368L7.49146 19.3148L8.58256 18.206L9.11098 17.6689C9.21025 17.5613 9.26911 17.4906 9.26911 17.4906L7.84725 18.0967C7.84725 18.0967 7.82002 18.0813 7.95794 17.827C8.09543 17.575 8.42838 17.1103 8.42838 17.1103L5.78891 18.9943C5.94133 18.2548 7.59029 16.0406 7.59029 16.0406L5.84821 17.6347C5.73137 17.0792 6.75 14.9682 6.75 14.9682C6.10869 15.6036 5.64703 16.301 5.64703 16.301C5.64703 15.6919 6.10869 14.8206 6.10869 14.8206C3.99325 16.9364 3.40597 19.584 3.25838 20.569C2.95178 20.7605 3.14022 20.5273 2.99395 20.8791C1.5734 21.28 0.767375 22.5469 0.584206 22.8618C1.73637 21.4403 3.18678 21.5821 3.18678 21.5821C3.18678 21.5821 4.91875 24.7817 4.16543 24.5235C3.40597 24.2605 3.76967 25.5331 3.76967 25.5331L2.35264 24.9223C2.58632 25.3847 3.04622 26.4738 2.78223 27.6068C2.49056 28.0498 2.2011 28.59 1.94501 29.2557L2.42995 29.1745C2.52483 28.9716 2.61883 28.7867 2.71326 28.6098C2.72688 28.5869 2.74138 28.565 2.75148 28.5426C2.77037 28.5052 2.79145 28.4692 2.81429 28.4319C2.82571 28.4099 2.83933 28.3858 2.85119 28.3647C2.8714 28.3305 2.88897 28.2958 2.91137 28.2615C2.92498 28.2374 2.9386 28.2172 2.94827 28.1961C2.97023 28.1618 2.98868 28.1267 3.0124 28.0946C3.02338 28.0731 3.03436 28.0547 3.04622 28.0375C3.06686 28.0029 3.0897 27.9686 3.11079 27.9352C3.12045 27.9168 3.13056 27.8997 3.14505 27.8825C3.16482 27.8478 3.18942 27.8136 3.21401 27.7793C3.22412 27.7631 3.23027 27.7477 3.24125 27.735C3.27068 27.6893 3.30274 27.645 3.33349 27.6019C3.33349 27.6002 3.337 27.5971 3.337 27.5953C3.36775 27.5483 3.39982 27.5062 3.43056 27.4623C3.44067 27.4517 3.45033 27.4372 3.45956 27.4249C3.4824 27.3933 3.50348 27.3657 3.52588 27.3345C3.53774 27.3178 3.54872 27.3055 3.56278 27.2901C3.57947 27.2655 3.59748 27.2401 3.61593 27.2146C3.63174 27.1992 3.6436 27.1839 3.65458 27.1676C3.67171 27.1456 3.68928 27.1246 3.70642 27.1035C3.71915 27.0881 3.73541 27.0728 3.74683 27.0556C3.76528 27.0345 3.77889 27.0165 3.79471 26.9972C3.80964 26.9818 3.82106 26.966 3.83424 26.9507C3.85049 26.9313 3.86586 26.9129 3.88256 26.8971C3.89354 26.8817 3.90759 26.8672 3.91945 26.8527C3.93483 26.833 3.95108 26.818 3.9625 26.8009C3.97656 26.7886 3.98798 26.7715 4.00159 26.7592C4.01653 26.7438 4.02927 26.7298 4.04552 26.7135C4.05694 26.6977 4.06836 26.6889 4.07978 26.6749C4.09647 26.6595 4.10877 26.6459 4.12371 26.6288C4.13293 26.62 4.14655 26.6059 4.15797 26.5919C4.16895 26.5787 4.18344 26.5647 4.1997 26.5524C4.20848 26.5427 4.21771 26.5322 4.22957 26.5216C4.24274 26.5071 4.25768 26.4909 4.27042 26.4786C4.28228 26.4711 4.28843 26.4601 4.29809 26.454C4.32093 26.4307 4.33938 26.4114 4.36002 26.3912C4.37232 26.3851 4.37847 26.3771 4.3877 26.3692C4.39692 26.3569 4.41054 26.346 4.42196 26.3359C4.42855 26.3271 4.44085 26.3187 4.44744 26.3113C4.45886 26.3016 4.47072 26.2928 4.4773 26.2819C4.48916 26.277 4.49356 26.2687 4.50498 26.2647C4.51201 26.2533 4.52343 26.2472 4.53353 26.2393C4.53968 26.2327 4.54627 26.2239 4.5533 26.2191C4.56252 26.2129 4.56911 26.205 4.57877 26.198C4.58492 26.1958 4.59239 26.1874 4.59854 26.1782C4.60601 26.1773 4.61347 26.1686 4.61962 26.1637C4.62709 26.1598 4.63104 26.1532 4.63807 26.1466C4.64773 26.144 4.65169 26.1391 4.65652 26.1343C4.66311 26.129 4.6675 26.1268 4.67145 26.1207C4.67716 26.1185 4.68419 26.1119 4.68858 26.1097C4.69561 26.1084 4.69781 26.1014 4.70001 26.0996C4.7044 26.0965 4.71187 26.0935 4.7167 26.0908C4.7167 26.086 4.72065 26.0842 4.72285 26.0842C4.72548 26.0777 4.73031 26.0777 4.73471 26.075C4.73471 26.075 4.73998 26.0719 4.73998 26.0702C4.74393 26.0671 4.74613 26.0671 4.7514 26.0654C4.7514 26.0623 4.75316 26.0623 4.75316 26.0623L4.7167 26.2327L4.27744 28.2958C5.94309 26.2327 8.40247 23.8389 9.55902 22.7446ZM4.66574 22.5298L4.85638 22.467C4.86077 22.4929 4.87263 22.5175 4.88186 22.5377C4.98508 22.7893 5.22316 22.943 5.4766 22.943C5.55743 22.943 5.63561 22.9307 5.71073 22.8974C5.83723 22.846 5.93826 22.7547 6.00547 22.6479L5.8078 22.5298C5.83284 22.4754 5.84426 22.4139 5.84426 22.3502C5.84426 22.2764 5.82581 22.2075 5.79858 22.1434L6.23168 21.9958C6.38849 22.4565 6.16799 22.9492 5.73401 23.0981C5.30266 23.2456 4.82387 22.9949 4.66574 22.5298Z" fill="black"/>
</g>
<g id="g76">
<path id="path78" d="M44.7398 25.9945C44.4477 25.9163 44.011 25.8733 43.4431 25.8733H42.2097V32.8421L42.3406 32.7507L43.3548 32.0358L43.3908 32.0095V30.0377H43.7782C44.4938 30.0377 45.0745 29.8467 45.501 29.476C45.931 29.0988 46.1476 28.5868 46.1476 27.95C46.1476 27.3537 45.9442 26.8544 45.544 26.4609C45.3139 26.2343 45.045 26.0771 44.7398 25.9945ZM43.7128 29.0334H43.3877V26.897H43.7523C44.684 26.897 45.1531 27.2421 45.1531 27.9307C45.1531 28.6658 44.6708 29.0334 43.7128 29.0334ZM51.3 29.8704C51.7076 29.7553 52.0454 29.5349 52.3041 29.2104C52.5896 28.856 52.7315 28.4225 52.7315 27.9307C52.7315 27.3005 52.5014 26.7819 52.0485 26.3955C51.6417 26.0512 50.9749 25.8733 50.0692 25.8733H48.7993V32.8421L48.9272 32.7507L49.9449 32.0358L49.9809 32.0095V30.0144H50.0367L51.9338 32.7314L51.9795 32.7999L52.0485 32.7507L52.8624 32.1632L52.9314 32.114L52.8822 32.0455L51.3 29.8704ZM49.9809 29.0334V28.964V26.9962V26.897H50.3451C51.2772 26.897 51.7467 27.2421 51.7467 27.9307C51.7467 28.6658 51.2644 29.0334 50.3055 29.0334H49.9809ZM33.5915 26.0801C33.1909 25.9427 32.6427 25.8733 31.9632 25.8733H30.4706V32.7635H31.9474C32.6326 32.7635 33.1707 32.7015 33.552 32.5733C33.9557 32.4455 34.3519 32.2159 34.723 31.8913C35.4583 31.2379 35.8357 30.3754 35.8357 29.3184C35.8357 28.2719 35.4746 27.409 34.7661 26.763C34.4147 26.4442 34.0211 26.215 33.5915 26.0801ZM33.9227 31.0416C33.6899 31.2506 33.4242 31.4087 33.1312 31.5036C32.8435 31.5989 32.4692 31.645 32.0256 31.645H31.6518V26.9962H32.0256C32.8628 26.9962 33.5059 27.196 33.9289 27.5868C34.405 28.0295 34.6413 28.6096 34.6413 29.3184C34.6413 30.0241 34.4019 30.6011 33.9227 31.0416ZM26.1677 26.8675C26.6034 26.8675 27.0339 26.9922 27.4538 27.2386L27.5268 27.2808L27.5659 27.2087L28.0583 26.3594L28.1009 26.2874L28.0288 26.2444C27.4538 25.9133 26.8499 25.746 26.2393 25.746C25.1109 25.746 24.1792 26.1684 23.4703 27.0054C22.8926 27.6914 22.6001 28.4787 22.6001 29.3518C22.6001 30.3223 22.9515 31.1694 23.6376 31.858C24.3329 32.5408 25.1798 32.8882 26.1611 32.8882C26.8103 32.8882 27.438 32.7174 28.0288 32.3832L28.0706 32.3568V32.2879L28.0613 32.269L27.5659 31.4118L27.5228 31.3371L27.4477 31.3863C27.3102 31.4746 27.1745 31.5466 27.0502 31.5989C26.8103 31.7108 26.5156 31.7662 26.1703 31.7662C25.5084 31.7662 24.9404 31.5299 24.4805 31.0635C24.0242 30.5985 23.7914 30.0175 23.7914 29.3382C23.7914 28.6496 24.0242 28.0585 24.4805 27.5868C24.9374 27.1069 25.5044 26.8675 26.1677 26.8675ZM103.837 26.9962L103.86 26.9725L104.795 26.0178L104.936 25.8733H100.942V32.7635H103.86L103.883 32.7406L104.798 31.7859L104.933 31.645H102.123V29.5055H102.99L103.013 29.4796L103.962 28.5284L104.102 28.3839H102.123V26.9962H103.837ZM83.6237 26.9962H85.169V32.8421L85.3008 32.7507L86.3146 32.0358L86.3511 32.0095V26.9962H87.8937V25.8733H83.6237V26.9962ZM58.6386 25.7486C57.6503 25.7486 56.7907 26.1003 56.0887 26.7924C55.3798 27.4845 55.0218 28.325 55.0218 29.289C55.0218 30.3846 55.4154 31.2871 56.1906 31.9664C56.8926 32.5773 57.6995 32.8882 58.5859 32.8882C59.5839 32.8882 60.4505 32.5373 61.1555 31.8487C61.8614 31.1628 62.2189 30.3161 62.2189 29.3289C62.2189 28.3505 61.8645 27.4973 61.1621 26.8017C60.4637 26.103 59.6164 25.7486 58.6386 25.7486ZM60.3253 31.0613C59.8558 31.5299 59.2751 31.7662 58.5955 31.7662C57.9753 31.7662 57.414 31.533 56.9387 31.0706C56.4559 30.6117 56.213 30.0175 56.213 29.2995C56.213 28.6202 56.4494 28.0387 56.9119 27.5763C57.3749 27.1069 57.9525 26.8675 58.6254 26.8675C59.3014 26.8675 59.8755 27.1069 60.3324 27.5763C60.7949 28.0427 61.0277 28.6294 61.0277 29.3184C61.0277 29.9977 60.7914 30.5853 60.3253 31.0613ZM111.986 26.763C111.634 26.4442 111.238 26.215 110.807 26.0801C110.407 25.9427 109.862 25.8733 109.18 25.8733H107.686V32.7635H109.163C109.849 32.7635 110.391 32.7015 110.771 32.5733C111.175 32.4455 111.569 32.2159 111.94 31.8913C112.678 31.2379 113.052 30.3754 113.052 29.3184C113.052 28.2719 112.695 27.409 111.986 26.763ZM111.142 31.0416C110.906 31.2506 110.64 31.4087 110.351 31.5036C110.059 31.5989 109.688 31.645 109.242 31.645H108.868V26.9962H109.242C110.082 26.9962 110.722 27.196 111.149 27.5868C111.622 28.0295 111.86 28.6096 111.86 29.3184C111.86 30.0241 111.622 30.6011 111.142 31.0416ZM96.4003 29.8704C96.8066 29.7553 97.1448 29.5349 97.4044 29.2104C97.6899 28.856 97.8309 28.4225 97.8309 27.9307C97.8309 27.3005 97.6012 26.7819 97.1483 26.3955C96.7376 26.0512 96.0752 25.8733 95.169 25.8733H93.8957V32.8421L94.0274 32.7507L95.0447 32.0358L95.0808 32.0095V30.0144H95.1361L97.0297 32.7314L97.0798 32.7999L97.1483 32.7507L97.9618 32.1632L98.0273 32.114L97.9816 32.0455L96.4003 29.8704ZM95.0808 29.0334V26.897H95.4414C96.377 26.897 96.8435 27.2421 96.8435 27.9307C96.8435 28.6658 96.3638 29.0334 95.4023 29.0334H95.0808ZM80.3939 25.8997L77.92 28.4357V25.7978L77.7883 25.8931L76.7745 26.6054L76.738 26.6313V32.8421L76.8729 32.7507L77.8867 32.0358L77.92 32.0095V29.9323L78.0408 29.8137L80.4036 32.734L80.4497 32.7929L80.5156 32.7507L81.3853 32.1632L81.4608 32.1109L81.4016 32.038L78.8851 29.0066L81.8707 26.0178L82.0121 25.8733H80.4207L80.3939 25.8997ZM65.8586 26.6084L65.8221 26.6348V30.306C65.8221 30.8615 65.7633 31.2506 65.6486 31.4671C65.5467 31.6709 65.3662 31.7662 65.0974 31.7662C64.9006 31.7662 64.6871 31.6911 64.4574 31.5369L64.3818 31.4878L64.3392 31.5624L63.8372 32.4288L63.7976 32.5009L63.8666 32.5439C64.247 32.7705 64.6603 32.8882 65.0974 32.8882C65.6816 32.8882 66.1568 32.6748 66.5113 32.262C66.6923 32.0525 66.8206 31.7925 66.8992 31.4908C66.9712 31.2287 67.0103 30.8409 67.0103 30.3095V25.7978L66.8759 25.8931L65.8586 26.6084ZM73.1216 26.9962L73.1475 26.9725L74.0827 26.0178L74.2206 25.8733H70.2305V32.7635H73.1445L73.1708 32.7406L74.0827 31.7859L74.218 31.645H71.4121V29.5055H72.2748L72.2976 29.4796L73.2459 28.5284L73.3874 28.3839H71.4121V26.9962H73.1216Z" fill="black"/>
</g>
<g id="g80">
<path id="path82" d="M115.045 28.1548C114.381 28.1548 113.84 27.6142 113.84 26.9502C113.84 26.2796 114.381 25.7456 115.045 25.7456C115.716 25.7456 116.25 26.2796 116.25 26.9502C116.25 27.6142 115.716 28.1548 115.045 28.1548ZM115.045 25.9266C114.477 25.9266 114.022 26.3763 114.022 26.9502C114.022 27.5123 114.477 27.9725 115.045 27.9725C115.614 27.9725 116.068 27.5123 116.068 26.9502C116.068 26.3763 115.614 25.9266 115.045 25.9266ZM115.375 27.6427L115.017 27.0978H114.778V27.6427H114.585V26.2625H115.148C115.381 26.2625 115.596 26.4268 115.596 26.6832C115.596 26.9897 115.323 27.0916 115.245 27.0916L115.614 27.6427H115.375ZM115.148 26.4333H114.778V26.9212H115.148C115.267 26.9212 115.397 26.8255 115.397 26.6832C115.397 26.5295 115.267 26.4333 115.148 26.4333Z" fill="black"/>
</g>
</g>
</g>
</g>
</g>
<defs>
<clipPath id="clip0_21_33">
<rect width="116.25" height="50" fill="white"/>
</clipPath>
</defs>
</svg>
