<svg width="44" height="44" viewBox="0 0 44 44" fill="none" xmlns="http://www.w3.org/2000/svg">
<g clip-path="url(#clip0_24_438)">
<path d="M21.9267 44C21.7087 44 21.4917 43.9961 21.275 43.9898L25.756 31.6333H31.9226C33.005 31.6333 34.1932 30.7985 34.5634 29.7784L39.4247 16.3802C40.2201 14.1866 38.9679 12.392 36.6416 12.392H28.0864L20.9085 32.1834H20.9058L16.8363 43.4027C7.18188 41.0999 0.000732422 32.3917 0.000732422 22C0.000732422 11.908 6.77341 3.40389 16.007 0.812167L11.808 12.392H11.8068L4.82647 31.6333L9.47324 31.6338L15.4095 15.2835H18.9019L12.9657 31.6338L17.6107 31.6346L23.1427 16.3802C23.9386 14.1866 22.6862 12.392 20.3621 12.392H16.456L20.941 0.0231204C21.2679 0.00855555 21.5961 0 21.9265 0C34.0359 0 43.8524 9.84968 43.8524 22C43.8524 34.1502 34.0359 44 21.9265 44H21.9267ZM35.1931 15.2717H31.7017L26.8123 28.7322H30.3038L35.1931 15.2717Z" fill="black"/>
</g>
<defs>
<clipPath id="clip0_24_438">
<rect width="43.8519" height="44" fill="white"/>
</clipPath>
</defs>
</svg>
