<svg width="25" height="25" viewBox="0 0 25 25" fill="none" xmlns="http://www.w3.org/2000/svg">
<g id="youtube logo">
<path id="YouTube" d="M19.7147 18.6528H18.4273L18.4333 17.8994C18.4333 17.5645 18.7062 17.2906 19.0398 17.2906H19.1219C19.456 17.2906 19.7296 17.5645 19.7296 17.8994L19.7147 18.6528ZM14.8865 17.0382C14.5599 17.0382 14.2928 17.2593 14.2928 17.5301V21.1945C14.2928 21.4648 14.5599 21.6854 14.8865 21.6854C15.2143 21.6854 15.4817 21.4648 15.4817 21.1945V17.5301C15.4817 17.2591 15.2143 17.0382 14.8865 17.0382ZM22.7273 14.9884V21.9596C22.7273 23.6317 21.2883 25 19.5297 25H6.37978C4.62043 25 3.18188 23.6317 3.18188 21.9596V14.9884C3.18188 13.3163 4.62043 11.9477 6.37978 11.9477H19.5297C21.2883 11.9477 22.7273 13.3163 22.7273 14.9884ZM7.25698 22.7165L7.25594 15.3732L8.88603 15.3737V14.2856L4.54069 14.2791V15.3487L5.89714 15.3527V22.7165H7.25698ZM12.1433 16.467H10.7843V20.3883C10.7843 20.9556 10.8184 21.2392 10.7822 21.3392C10.6717 21.6434 10.175 21.9661 9.98136 21.3721C9.94852 21.2681 9.97745 20.9542 9.97693 20.4153L9.97146 16.467H8.61995L8.62412 20.3531C8.62516 20.9487 8.61083 21.3931 8.62881 21.595C8.66191 21.9514 8.65018 22.3672 8.97829 22.6043C9.58967 23.0484 10.7616 22.5381 11.0548 21.9036L11.0522 22.7133L12.1436 22.7146V16.467H12.1433ZM16.491 20.9574L16.4882 17.6937C16.4871 16.4499 15.5638 15.7049 14.3103 16.7112L14.3158 14.2848L12.958 14.2869L12.9515 22.6621L14.0677 22.6456L14.1693 22.124C15.5964 23.4431 16.4931 22.5395 16.491 20.9574ZM20.7444 20.5248L19.7252 20.5304C19.7246 20.5711 19.7233 20.6181 19.7228 20.6693V21.2423C19.7228 21.5488 19.4713 21.7986 19.1659 21.7986H18.9663C18.6603 21.7986 18.4091 21.5488 18.4091 21.2423V21.1788V20.5485V19.7351H20.7426V18.8501C20.7426 18.2032 20.7261 17.5566 20.673 17.1869C20.5062 16.0171 18.8769 15.8315 18.0539 16.4302C17.7954 16.6172 17.5981 16.8675 17.4834 17.2039C17.3675 17.5404 17.3101 18 17.3101 18.5838V20.5296C17.3104 23.7646 21.2096 23.3074 20.7444 20.5248ZM15.5172 9.95991C15.5873 10.1317 15.6962 10.2709 15.844 10.3759C15.9899 10.4794 16.1767 10.5314 16.4001 10.5314C16.5961 10.5314 16.7696 10.4781 16.9208 10.368C17.0714 10.2585 17.1983 10.0949 17.3018 9.87666L17.2762 10.414H18.7911V3.92161H17.5986V8.97454C17.5986 9.2482 17.375 9.47222 17.1016 9.47222C16.8298 9.47222 16.6054 9.2482 16.6054 8.97454V3.92161H15.3608V8.30064C15.3608 8.85846 15.3707 9.23034 15.3871 9.41891C15.4046 9.60616 15.4471 9.78579 15.5172 9.95991ZM10.9263 6.29313C10.9263 5.66992 10.9779 5.18327 11.0803 4.8324C11.1835 4.48284 11.3688 4.20183 11.6372 3.98989C11.9049 3.7769 12.2476 3.67028 12.6643 3.67028C13.0148 3.67028 13.315 3.73961 13.566 3.87539C13.818 4.01196 14.0122 4.18923 14.1471 4.408C14.2845 4.62755 14.3778 4.85315 14.4276 5.084C14.4784 5.318 14.5034 5.67097 14.5034 6.14711V7.78905C14.5034 8.39125 14.4794 8.8343 14.433 9.11557C14.3869 9.39763 14.2879 9.65921 14.1346 9.9045C13.9832 10.1472 13.788 10.3286 13.5514 10.4445C13.3122 10.5613 13.0385 10.6186 12.7295 10.6186C12.3841 10.6186 12.0933 10.5705 11.8536 10.4702C11.613 10.3704 11.4272 10.2199 11.2948 10.0201C11.1611 9.81993 11.067 9.57622 11.0102 9.29206C10.9532 9.00816 10.9261 8.58113 10.9261 8.01202V6.29313H10.9263ZM12.1129 8.87212C12.1129 9.23979 12.3844 9.53998 12.7151 9.53998C13.0461 9.53998 13.3163 9.23979 13.3163 8.87212V5.41596C13.3163 5.0488 13.0461 4.74862 12.7151 4.74862C12.3844 4.74862 12.1129 5.0488 12.1129 5.41596V8.87212ZM7.92022 10.6173H9.34939L9.35095 5.63787L11.0397 1.3723H9.47656L8.57878 4.54062L7.66822 1.36363H6.12126L7.91788 5.64024L7.92022 10.6173Z" fill="black"/>
</g>
</svg>
